<svg width="94" height="100" viewBox="0 0 94 100" fill="none" xmlns="http://www.w3.org/2000/svg">
<path d="M93.75 28.125V15.625C93.75 13.1386 92.7623 10.754 91.0041 8.99587C89.246 7.23772 86.8614 6.25 84.375 6.25H71.875V3.125C71.875 2.2962 71.5458 1.50134 70.9597 0.915291C70.3737 0.32924 69.5788 0 68.75 0C67.9212 0 67.1263 0.32924 66.5403 0.915291C65.9542 1.50134 65.625 2.2962 65.625 3.125V6.25H50V3.125C50 2.2962 49.6708 1.50134 49.0847 0.915291C48.4987 0.32924 47.7038 0 46.875 0C46.0462 0 45.2513 0.32924 44.6653 0.915291C44.0792 1.50134 43.75 2.2962 43.75 3.125V6.25H28.125V3.125C28.125 2.2962 27.7958 1.50134 27.2097 0.915291C26.6237 0.32924 25.8288 0 25 0C24.1712 0 23.3763 0.32924 22.7903 0.915291C22.2042 1.50134 21.875 2.2962 21.875 3.125V15.625C21.875 16.4538 22.2042 17.2487 22.7903 17.8347C23.3763 18.4208 24.1712 18.75 25 18.75C25.8288 18.75 26.6237 18.4208 27.2097 17.8347C27.7958 17.2487 28.125 16.4538 28.125 15.625V12.5H43.75V15.625C43.75 16.4538 44.0792 17.2487 44.6653 17.8347C45.2513 18.4208 46.0462 18.75 46.875 18.75C47.7038 18.75 48.4987 18.4208 49.0847 17.8347C49.6708 17.2487 50 16.4538 50 15.625V12.5H65.625V15.625C65.625 16.4538 65.9542 17.2487 66.5403 17.8347C67.1263 18.4208 67.9212 18.75 68.75 18.75C69.5788 18.75 70.3737 18.4208 70.9597 17.8347C71.5458 17.2487 71.875 16.4538 71.875 15.625V12.5H84.375C85.2038 12.5 85.9987 12.8292 86.5847 13.4153C87.1708 14.0013 87.5 14.7962 87.5 15.625V25H6.25V15.625C6.25 14.7962 6.57924 14.0013 7.16529 13.4153C7.75134 12.8292 8.5462 12.5 9.375 12.5H12.5C13.3288 12.5 14.1237 12.1708 14.7097 11.5847C15.2958 10.9987 15.625 10.2038 15.625 9.375C15.625 8.5462 15.2958 7.75134 14.7097 7.16529C14.1237 6.57924 13.3288 6.25 12.5 6.25H9.375C6.8886 6.25 4.50403 7.23772 2.74587 8.99587C0.98772 10.754 0 13.1386 0 15.625V90.625C0 93.1114 0.98772 95.496 2.74587 97.2541C4.50403 99.0123 6.8886 100 9.375 100H84.375C86.8614 100 89.246 99.0123 91.0041 97.2541C92.7623 95.496 93.75 93.1114 93.75 90.625V40.625C93.75 39.7962 93.4208 39.0013 92.8347 38.4153C92.2487 37.8292 91.4538 37.5 90.625 37.5C89.7962 37.5 89.0013 37.8292 88.4153 38.4153C87.8292 39.0013 87.5 39.7962 87.5 40.625V90.625C87.5 91.4538 87.1708 92.2487 86.5847 92.8347C85.9987 93.4208 85.2038 93.75 84.375 93.75H9.375C8.5462 93.75 7.75134 93.4208 7.16529 92.8347C6.57924 92.2487 6.25 91.4538 6.25 90.625V31.25H90.625C91.4538 31.25 92.2487 30.9208 92.8347 30.3347C93.4208 29.7487 93.75 28.9538 93.75 28.125Z" fill="white"/>
</svg>
