<svg width="77" height="66" viewBox="0 0 77 66" fill="none" xmlns="http://www.w3.org/2000/svg">
<path d="M71.4108 0.481323H56.2033C54.834 0.481323 53.7137 1.60166 53.7137 2.97095C53.7137 4.34024 54.834 5.46058 56.2033 5.46058H71.1618V47.9087H4.97925V5.46058H19.9793C21.3485 5.46058 22.4689 4.34024 22.4689 2.97095C22.4689 1.60166 21.3485 0.481323 19.9793 0.481323H4.73029C2.11618 0.481323 0 2.59751 0 5.21161V48.1577C0 50.7718 2.11618 52.888 4.73029 52.888H35.5809V61.0207H22.8423C21.473 61.0207 20.3527 62.1411 20.3527 63.5104C20.3527 64.8797 21.473 66 22.8423 66H53.278C54.6473 66 55.7676 64.8797 55.7676 63.5104C55.7676 62.1411 54.6473 61.0207 53.278 61.0207H40.5602V52.888H71.4108C74.0249 52.888 76.1411 50.7718 76.1411 48.1577V5.23236C76.1411 2.61825 74.0249 0.481323 71.4108 0.481323Z" fill="white"/>
</svg>
