<svg width="103" height="100" viewBox="0 0 103 100" fill="none" xmlns="http://www.w3.org/2000/svg">
<path d="M98.1481 86.4198H95.0617V76.5432H86.4198V24.0741C86.4198 10.7995 75.6202 0 62.3457 0H40.1235C26.8489 0 16.0494 10.7995 16.0494 24.0741V76.5432H7.40741V86.4198H4.32099C1.93852 86.4198 0 88.3583 0 90.7407V95.679C0 98.0615 1.93852 100 4.32099 100H98.1481C100.531 100 102.469 98.0615 102.469 95.679V90.7407C102.469 88.3583 100.531 86.4198 98.1481 86.4198ZM19.7531 24.0741C19.7531 12.8417 28.8914 3.7037 40.1235 3.7037H62.3457C73.5778 3.7037 82.716 12.8417 82.716 24.0741V76.5432H76.5432V51.2346H72.8395V76.5432H53.0864V50.483C59.3598 49.5815 64.1975 44.1733 64.1975 37.6543C64.1975 30.5064 58.3822 24.6914 51.2346 24.6914C44.0869 24.6914 38.2716 30.5064 38.2716 37.6543C38.2716 44.1733 43.1094 49.5812 49.3827 50.483V76.5432H29.6296V51.2346H25.9259V76.5432H19.7531V24.0741ZM49.3827 33.9506V46.7272C45.1615 45.8669 41.9753 42.1259 41.9753 37.6543C41.9753 32.5486 46.1289 28.3951 51.2346 28.3951C56.3402 28.3951 60.4938 32.5486 60.4938 37.6543C60.4938 42.1259 57.3077 45.8669 53.0864 46.7272V33.9506H49.3827ZM11.1111 80.2469H91.358V86.4198H11.1111V80.2469ZM98.7654 95.679C98.7654 96.0136 98.4827 96.2963 98.1481 96.2963H4.32099C3.98642 96.2963 3.7037 96.0136 3.7037 95.679V90.7407C3.7037 90.4062 3.98642 90.1235 4.32099 90.1235H98.1481C98.4827 90.1235 98.7654 90.4062 98.7654 90.7407V95.679Z" fill="white"/>
</svg>
