<svg width="51" height="50" viewBox="0 0 51 50" fill="none" xmlns="http://www.w3.org/2000/svg">
<path d="M25.6671 4.50625C32.3421 4.50625 33.1338 4.53125 35.7713 4.65208C42.5463 4.96042 45.7109 8.175 46.0192 14.9C46.14 17.5354 46.1629 18.3271 46.1629 25.0021C46.1629 31.6792 46.1379 32.4688 46.0192 35.1042C45.7088 41.8229 42.5525 45.0437 35.7713 45.3521C33.1338 45.4729 32.3463 45.4979 25.6671 45.4979C18.9921 45.4979 18.2004 45.4729 15.565 45.3521C8.77336 45.0417 5.62545 41.8125 5.31711 35.1021C5.19628 32.4667 5.17128 31.6771 5.17128 25C5.17128 18.325 5.19836 17.5354 5.31711 14.8979C5.62753 8.175 8.78378 4.95833 15.565 4.65C18.2025 4.53125 18.9921 4.50625 25.6671 4.50625ZM25.6671 0C18.8775 0 18.0275 0.0291667 15.3609 0.15C6.2817 0.566667 1.23586 5.60417 0.819198 14.6917C0.696281 17.3604 0.667114 18.2104 0.667114 25C0.667114 31.7896 0.696281 32.6417 0.817114 35.3083C1.23378 44.3875 6.27128 49.4333 15.3588 49.85C18.0275 49.9708 18.8775 50 25.6671 50C32.4567 50 33.3088 49.9708 35.9754 49.85C45.0463 49.4333 50.1046 44.3958 50.515 35.3083C50.6379 32.6417 50.6671 31.7896 50.6671 25C50.6671 18.2104 50.6379 17.3604 50.5171 14.6937C50.1088 5.62292 45.065 0.56875 35.9775 0.152083C33.3088 0.0291667 32.4567 0 25.6671 0V0ZM25.6671 12.1625C18.5775 12.1625 12.8296 17.9104 12.8296 25C12.8296 32.0896 18.5775 37.8396 25.6671 37.8396C32.7567 37.8396 38.5046 32.0917 38.5046 25C38.5046 17.9104 32.7567 12.1625 25.6671 12.1625ZM25.6671 33.3333C21.065 33.3333 17.3338 29.6042 17.3338 25C17.3338 20.3979 21.065 16.6667 25.6671 16.6667C30.2692 16.6667 34.0004 20.3979 34.0004 25C34.0004 29.6042 30.2692 33.3333 25.6671 33.3333ZM39.0129 8.65625C37.3546 8.65625 36.0109 10 36.0109 11.6562C36.0109 13.3125 37.3546 14.6562 39.0129 14.6562C40.6692 14.6562 42.0109 13.3125 42.0109 11.6562C42.0109 10 40.6692 8.65625 39.0129 8.65625Z" fill="white"/>
</svg>
