<svg width="107" height="100" viewBox="0 0 107 100" fill="none" xmlns="http://www.w3.org/2000/svg">
<path d="M95.5544 15.6937H85.4201L93.6366 7.47715V11.3971C93.6366 12.5724 94.5894 13.5254 95.765 13.5254C96.9405 13.5254 97.8933 12.5724 97.8933 11.3971V2.12837C97.8933 0.953061 96.9405 0 95.765 0H86.4963C85.3207 0 84.3679 0.953061 84.3679 2.12837C84.3679 3.30368 85.3207 4.25674 86.4963 4.25674H90.8371L79.4002 15.6937H11.2919C5.0656 15.6937 0 20.7593 0 26.9858V74.5942C0 80.8205 5.0656 85.8861 11.2919 85.8861H51.2948V88.6862H38.8691C34.7518 88.6862 31.402 92.036 31.402 96.1533V97.8716C31.402 99.0469 32.3548 100 33.5303 100H73.3162C74.4917 100 75.4445 99.0469 75.4445 97.8716V96.1533C75.4445 92.036 72.0948 88.6862 67.9774 88.6862H55.5515V85.8861H95.5544C101.781 85.8861 106.846 80.8205 106.846 74.5942V26.9858C106.846 20.7593 101.781 15.6937 95.5544 15.6937ZM4.25674 26.9858C4.25674 23.1066 7.41267 19.9506 11.2917 19.9506H75.143L49.1046 45.9892L40.4979 37.3826C39.6667 36.5517 38.319 36.5517 37.4878 37.3826L20.9513 53.919C20.1201 54.7502 20.1201 56.0979 20.9513 56.9293C21.367 57.3447 21.9116 57.5526 22.4563 57.5526C23.001 57.5526 23.5458 57.3447 23.9613 56.9293L38.9929 41.8977L47.5996 50.5045C48.4308 51.3355 49.7785 51.3355 50.6097 50.5045L81.1633 19.9506H95.5544C99.4336 19.9506 102.589 23.1066 102.589 26.9858V69.5165H4.25674V26.9858ZM67.9772 92.9429C69.6085 92.9429 70.9595 94.1658 71.1615 95.7431H35.6848C35.8868 94.1658 37.2378 92.9429 38.8691 92.9429H67.9772ZM102.59 74.5942C102.59 78.4734 99.4336 81.6291 95.5546 81.6291H11.2919C7.41288 81.6289 4.25695 78.4732 4.25695 74.5942V73.7734H102.59V74.5942Z" fill="white"/>
</svg>
