<svg width="93" height="112" viewBox="0 0 93 112" fill="none" xmlns="http://www.w3.org/2000/svg">
<path d="M90.8271 8.88652C87.9305 3.86959 82.7428 0.874589 76.9496 0.874589V6.52874C80.6988 6.52874 84.0557 8.46698 85.9306 11.7136C87.8055 14.9608 87.8055 18.8373 85.9312 22.0844L67.7689 53.5419C65.8946 56.7885 62.5371 58.7267 58.7879 58.7273C55.0386 58.7273 51.6812 56.789 49.8063 53.5419L31.6446 22.0839C29.7702 18.8373 29.7702 14.9602 31.6446 11.7136C33.5189 8.46698 36.8769 6.52817 40.6262 6.52817V0.874023C34.8329 0.874023 29.6447 3.86903 26.7481 8.88652C23.8515 13.904 23.8515 19.894 26.7481 24.9109L44.9098 56.3684C47.3252 60.5519 51.3363 63.3224 55.9608 64.1298V79.301C55.9608 94.1211 47.2121 106.178 36.4585 106.178C25.7049 106.178 16.9568 94.1211 16.9568 79.301V61.2371C23.3969 59.9243 28.2583 54.2158 28.2583 47.3924C28.2583 39.6015 21.92 33.2632 14.1292 33.2632C6.3383 33.2632 0 39.6015 0 47.3924C0 54.2153 4.86144 59.9237 11.3021 61.2371V79.301C11.3021 97.2388 22.5872 111.832 36.4585 111.832C50.3293 111.832 61.6144 97.2388 61.6144 79.301V64.1298C66.2383 63.3224 70.25 60.5519 72.6649 56.3684L90.8271 24.9109C93.7243 19.894 93.7243 13.9034 90.8271 8.88652Z" fill="white"/>
</svg>
