<svg width="111" height="95" viewBox="0 0 111 95" fill="none" xmlns="http://www.w3.org/2000/svg">
<path d="M100.719 93.0498C105.847 90.3563 109.048 85.2927 109.28 79.5041L103.63 79.2778C103.48 83.0241 101.409 86.3007 98.0898 88.0441C94.7702 89.7876 90.8968 89.6324 87.7272 87.6296L57.0219 68.223C53.8529 66.2202 52.0506 62.7879 52.2001 59.0416C52.3501 55.2953 54.4212 52.0181 57.7408 50.2747L89.9004 33.3865C93.2195 31.6436 97.0934 31.7988 100.262 33.8016C103.431 35.8044 105.234 39.2373 105.084 42.9835L110.734 43.2098C110.966 37.4212 108.181 32.1173 103.283 29.0222C98.3856 25.927 92.4004 25.6873 87.2716 28.3808L55.1125 45.269C50.8357 47.5151 47.9069 51.412 46.915 56.0006L31.756 55.3934C16.9477 54.8003 5.25062 45.5761 5.681 34.8311C6.11137 24.0861 18.5087 15.8275 33.3169 16.4206L51.3663 17.1436C52.4204 23.631 57.9297 28.717 64.7477 28.9901C72.5323 29.3019 79.1192 23.2224 79.431 15.4377C79.7428 7.65314 73.6632 1.06625 65.8786 0.754447C59.0612 0.481386 53.1628 5.11047 51.5927 11.4934L33.5433 10.7704C15.6198 10.0525 0.586524 20.7446 0.0313736 34.6048C-0.523754 48.4644 13.6063 60.3245 31.5297 61.0424L46.6887 61.6496C47.3104 66.3022 49.9182 70.4215 54.0017 73.0019L84.7071 92.4085C89.604 95.5042 95.5898 95.7439 100.719 93.0498Z" fill="white"/>
</svg>
