<svg width="62" height="50" viewBox="0 0 62 50" fill="none" xmlns="http://www.w3.org/2000/svg">
<path d="M61.6998 5.9193C59.4361 6.92422 57.0033 7.601 54.45 7.90607C57.0571 6.34485 59.0593 3.871 60.0001 0.922888C57.5621 2.36875 54.8601 3.41981 51.9838 3.98636C49.6843 1.53302 46.4003 0 42.7703 0C34.6207 0 28.6322 7.60357 30.4728 15.4968C19.9852 14.9713 10.6846 9.94668 4.45766 2.30978C1.15064 7.98298 2.74262 15.4045 8.36198 19.1627C6.29574 19.0961 4.34742 18.5295 2.64777 17.5836C2.50934 23.4311 6.70079 28.9018 12.7713 30.1195C10.9948 30.6014 9.04902 30.7142 7.06994 30.3348C8.67474 35.3492 13.3353 38.9971 18.8624 39.0997C13.5558 43.2604 6.86998 45.1189 0.17392 44.3294C5.75995 47.9107 12.3971 50 19.5238 50C42.96 50 56.2009 30.2066 55.401 12.4539C57.8672 10.6722 60.0078 8.44955 61.6998 5.9193Z" fill="white"/>
</svg>
