<svg width="662" height="689" viewBox="0 0 662 689" fill="none" xmlns="http://www.w3.org/2000/svg">
<path d="M326.409 32.8064C427.704 -19.0205 503.862 -142.886 596.409 -76.6936C596.409 -76.6936 624.078 -50.5586 660.909 -107.194C697.74 -163.829 818.233 -191.638 832.909 -125.694C843.13 -79.7671 774.298 -69.5827 770.409 -22.6936C766.687 22.197 771.429 63.6187 810.909 85.3064C849.809 106.676 879.647 51.4234 922.409 63.3064C988.685 81.7233 988.416 150.477 1011.41 215.306C1042.14 301.946 1109.04 399.792 1031.91 449.806C984.398 480.615 931.844 415.348 886.909 449.806C830.887 492.766 918.337 573.142 876.909 630.306C823.129 704.516 732.733 696.626 645.409 668.806C578.49 647.487 573.011 570.362 503.909 557.806C426.667 543.772 394.88 632.667 316.409 630.306C215.82 627.281 167.746 566.788 96.9093 495.306C53.0626 451.061 13.3602 428.128 2.40934 366.806C-12.2824 284.537 42.8234 238.515 96.9093 174.806C165.119 94.4614 232.583 80.8123 326.409 32.8064Z" fill="url(#paint0_linear_39:27)"/>
<path d="M326.409 32.8064C427.704 -19.0205 503.862 -142.886 596.409 -76.6936C596.409 -76.6936 624.078 -50.5586 660.909 -107.194C697.74 -163.829 818.233 -191.638 832.909 -125.694C843.13 -79.7671 774.298 -69.5827 770.409 -22.6936C766.687 22.197 771.429 63.6187 810.909 85.3064C849.809 106.676 879.647 51.4234 922.409 63.3064C988.685 81.7233 988.416 150.477 1011.41 215.306C1042.14 301.946 1109.04 399.792 1031.91 449.806C984.398 480.615 931.844 415.348 886.909 449.806C830.887 492.766 918.337 573.142 876.909 630.306C823.129 704.516 732.733 696.626 645.409 668.806C578.49 647.487 573.011 570.362 503.909 557.806C426.667 543.772 394.88 632.667 316.409 630.306C215.82 627.281 167.746 566.788 96.9093 495.306C53.0626 451.061 13.3602 428.128 2.40934 366.806C-12.2824 284.537 42.8234 238.515 96.9093 174.806C165.119 94.4614 232.583 80.8123 326.409 32.8064Z" fill="url(#paint1_linear_39:27)"/>
<defs>
<linearGradient id="paint0_linear_39:27" x1="9.40934" y1="58.3064" x2="937.409" y2="571.306" gradientUnits="userSpaceOnUse">
<stop stop-color="#0099FF"/>
<stop offset="1" stop-color="#224074"/>
</linearGradient>
<linearGradient id="paint1_linear_39:27" x1="9.40934" y1="58.3064" x2="937.409" y2="571.306" gradientUnits="userSpaceOnUse">
<stop stop-color="#0099FF"/>
<stop offset="1" stop-color="#224074"/>
</linearGradient>
</defs>
</svg>
