<svg width="101" height="100" viewBox="0 0 101 100" fill="none" xmlns="http://www.w3.org/2000/svg">
<path d="M99.0646 40.0104C98.7125 38.2808 97.0266 37.1664 95.2948 37.5164C95.0647 37.5633 94.8458 37.6352 94.6396 37.7268C93.2952 38.3208 92.4956 39.7867 92.8008 41.2862C96.1908 57.935 89.527 75.1836 75.8228 85.2294C66.4807 92.0775 54.953 94.865 43.363 93.0805C31.773 91.295 21.6186 85.1671 14.7705 75.8244C0.532052 56.3988 4.75086 29.0111 24.1755 14.7716C33.5176 7.92405 45.0458 5.13655 56.6352 6.92048C67.8907 8.65435 77.7831 14.4936 84.6173 23.3855L81.6791 22.9631C79.9303 22.7106 78.3115 23.9246 78.0606 25.6718C77.8092 27.419 79.0221 29.0388 80.7692 29.2903L91.3775 30.8159C91.4478 30.826 91.5171 30.8254 91.5874 30.8308C91.6705 30.8372 91.7541 30.8489 91.8367 30.8489C93.4006 30.8489 94.767 29.6999 94.9965 28.1072L96.5221 17.4989C96.7735 15.7517 95.5606 14.1319 93.8135 13.8804C92.0657 13.6285 90.4464 14.8419 90.195 16.5891L89.763 19.5929C81.9193 9.33245 70.5472 2.59567 57.609 0.602929C44.332 -1.44362 31.1163 1.75884 20.3972 9.61583C9.67759 17.4744 2.64731 29.114 0.602365 42.3909C-1.44258 55.6685 1.75774 68.8837 9.6158 79.6032C17.4733 90.3223 29.1129 97.3521 42.3904 99.3975C45.008 99.8008 47.6218 100 50.2159 100C60.7805 100 70.9968 96.6926 79.6022 90.3841C95.3108 78.8687 102.95 59.0957 99.0646 40.0104Z" fill="white"/>
</svg>
