<svg width="111" height="113" viewBox="0 0 111 113" fill="none" xmlns="http://www.w3.org/2000/svg">
<path d="M105.425 7.35699C105.833 4.84164 104.687 2.32846 102.519 0.989879C100.35 -0.348697 97.592 -0.253439 95.5238 1.23731C85.7743 8.26453 81.7384 11.1735 60.9456 11.9334C58.8451 12.0107 57.1285 12.5491 55.6941 13.583C50.3432 17.4398 53.028 23.6641 54.4709 27.0094C56.5761 31.891 57.3971 34.7214 55.5086 37.3021L44.3774 21.8588C46.587 18.661 46.7031 14.3113 44.3002 10.9775C41.2489 6.74414 35.3418 5.7856 31.1085 8.83688C26.8753 11.8882 25.9168 17.7952 28.9681 22.0286C31.3699 25.3607 35.5345 26.6278 39.2667 25.5425L50.3978 40.9856C47.3509 41.9625 44.9271 40.2874 40.9613 36.7465C38.2442 34.3199 33.1879 29.8047 27.837 33.6615C26.4214 34.6819 25.3367 36.1833 24.6116 38.122C17.3159 57.6077 13.2802 60.5165 3.53058 67.5439C1.46414 69.0333 0.498152 71.622 1.0825 74.1027C1.66685 76.5834 3.68866 78.4655 6.20401 78.8736C25.5343 82.0103 41.7434 71.0233 61.6989 56.6683L74.3354 74.2C69.1162 76.2249 62.9856 74.6148 59.5635 69.867C58.5455 68.4548 56.5785 68.1355 55.1662 69.1535C53.754 70.1714 53.4378 72.1387 54.4558 73.5512C58.4515 79.0948 64.9098 81.7628 71.2704 81.2711C70.0281 85.7285 70.6779 90.6703 73.588 94.7078C76.7634 99.1132 81.8053 101.389 86.8619 101.236C86.3025 104.461 86.9772 107.897 89.0365 110.754C90.0544 112.166 92.0214 112.485 93.4337 111.467C94.8459 110.449 95.1651 108.482 94.1472 107.07C92.8002 105.201 92.728 102.874 93.5849 100.903L100.386 110.339C101.404 111.751 103.371 112.07 104.783 111.052C106.196 110.034 106.515 108.067 105.497 106.655L98.6956 97.219C100.837 97.0295 103.022 97.8337 104.369 99.7025C105.386 101.115 107.354 101.434 108.766 100.416C110.178 99.3981 110.497 97.4311 109.479 96.0188C107.42 93.162 104.374 91.4356 101.138 90.9465C102.882 86.1976 102.317 80.6947 99.1415 76.2893C96.2314 72.2518 91.7485 70.0726 87.1283 69.8435C89.6059 63.9651 89.1156 56.9924 85.1201 51.449C84.1021 50.0368 82.1351 49.7176 80.7228 50.7355C79.3106 51.7534 78.9914 53.7205 80.0094 55.1327C83.4315 59.8805 83.0206 66.2059 79.4492 70.5168L66.8127 52.9851C86.7412 38.5925 102.29 26.6889 105.425 7.35699ZM88.9962 94.536C85.2661 95.6171 81.0969 94.3509 78.6988 91.0237C76.3006 87.6966 76.4189 83.3427 78.6227 80.1441L88.9962 94.536ZM58.0184 51.5579C38.8619 65.337 24.0474 75.3862 7.21486 72.6546C17.4363 65.2872 22.547 61.6035 30.5116 40.3309C30.8042 39.5479 31.1414 39.046 31.5211 38.7723C34.944 36.3025 41.977 52.2194 54.1849 46.2393L58.0184 51.5579ZM59.378 18.6936C59.7579 18.4198 60.3389 18.2598 61.1758 18.2287C83.8754 17.3992 88.9861 13.7155 99.2075 6.34807C96.4763 23.1805 82.2586 34.0576 63.1291 47.8742L59.2956 42.5556C68.8288 32.8652 55.9555 21.1605 59.378 18.6936ZM94.0309 79.9727C96.4291 83.2998 96.312 87.6555 94.1069 90.8523L83.7335 76.4604C87.4636 75.3793 91.6327 76.6455 94.0309 79.9727ZM38.4762 19.0583C37.0674 20.0737 35.0945 19.7536 34.079 18.3447C33.0635 16.9359 33.3836 14.963 34.7925 13.9475C36.2013 12.932 38.1742 13.2522 39.1897 14.661C40.2052 16.0699 39.8851 18.0428 38.4762 19.0583Z" fill="white"/>
</svg>
