<svg width="143" height="153" viewBox="0 0 143 153" fill="none" xmlns="http://www.w3.org/2000/svg">
<path d="M159.017 63.8115C159.017 63.8115 143.007 56.3608 137.67 53.8772C136.602 53.3801 137.02 52.3851 137.02 52.3851L144.968 35.3062C146.205 32.6476 145.049 29.4779 142.39 28.2407L83.3129 0.7474C80.6542 -0.489866 77.4846 0.666541 76.2473 3.32518C76.2473 3.32518 70.312 16.0788 68.3336 20.3301C67.8308 21.4106 66.6344 20.8186 66.6344 20.8186L45.393 10.9334C41.7729 9.24872 37.4574 10.8232 35.7727 14.4433L1.05532 89.0439C-0.629244 92.6637 0.94511 96.9795 4.56519 98.6642L118.189 151.542C121.809 153.227 126.125 151.652 127.809 148.032L162.527 73.4319C164.212 69.812 162.637 65.4962 159.017 63.8115ZM81.0316 8.45092C81.58 7.27231 82.5559 7.56478 82.5559 7.56478L137.349 33.0641C137.349 33.0641 138.475 33.8544 137.949 34.9838C136.47 38.1628 132.585 46.5112 131.184 49.5199C130.863 50.2114 130.525 50.5521 129.395 50.0265C115.756 43.6788 74.8359 24.6358 74.8359 24.6358C74.8359 24.6358 73.7241 24.1532 74.1811 23.1711C75.8938 19.4909 79.2081 12.3692 81.0316 8.45092ZM121.917 145.29C121.747 145.654 121.296 145.819 120.932 145.649L7.30766 92.7712C6.94347 92.6017 6.77858 92.1511 6.9482 91.7866C6.9482 91.7866 28.266 45.979 35.3717 30.7102C35.6916 30.0228 36.5556 30.3145 36.5556 30.3145L149.861 83.0442C149.861 83.0442 150.683 83.4771 150.289 84.3242C143.195 99.5662 121.917 145.29 121.917 145.29ZM151.904 76.8255C123.903 63.7946 39.8998 24.7015 39.8998 24.7015C39.8998 24.7015 38.4398 24.1174 38.9712 22.9756C39.6449 21.528 41.6657 17.1857 41.6657 17.1857C41.8352 16.8216 42.2861 16.6568 42.6505 16.8264L156.274 69.7043C156.639 69.8738 156.803 70.3247 156.634 70.6891L153.974 76.4054C153.974 76.4058 153.451 77.5454 151.904 76.8255Z" fill="white"/>
</svg>
