<svg width="96" height="92" viewBox="0 0 96 92" fill="none" xmlns="http://www.w3.org/2000/svg">
<path d="M92.7072 76.5771C92.5999 75.1982 91.395 74.1672 90.0159 74.2744L78.2998 75.1861C80.3856 72.5984 80.7402 69.0161 79.265 66.0874L92.9026 65.0262C94.2815 64.9189 95.3125 63.714 95.2052 62.335C95.0979 60.9561 93.8929 59.9252 92.514 60.0325L76.131 61.3073L62.131 40.4775C59.076 35.9325 54.8379 32.3064 49.875 29.9913L27.1302 19.3821L25.856 2.99901C25.7487 1.62006 24.5438 0.58914 23.1648 0.696445C21.7859 0.803751 20.755 2.00865 20.8623 3.3876L21.9235 17.0252C18.8015 16.0208 15.3176 16.9253 13.0837 19.3863L12.172 7.67022C12.0647 6.29127 10.8598 5.26035 9.48062 5.36749C8.10166 5.4748 7.07075 6.6797 7.17789 8.05884L8.47763 24.7614L5.80247 27.888C-2.60308 37.7121 -1.4488 52.5432 8.37532 60.9488L37.9662 86.2668C47.7903 94.6723 62.6214 93.5184 71.0269 83.6943L73.7021 80.5677L90.4046 79.2679C91.7836 79.161 92.8147 77.9559 92.7072 76.5771ZM67.2214 80.4386L67.221 80.4383C60.6109 88.164 48.9479 89.0714 41.2222 82.4612L11.6319 57.1437C3.90623 50.5335 2.99865 38.8704 9.60864 31.1449L16.7258 22.8266C17.7235 21.6605 19.3918 21.2993 20.7827 21.9481L47.7583 34.5309C49.8269 35.4958 51.7443 36.7337 53.4631 38.2043C55.1818 39.6749 56.7016 41.3775 57.9747 43.2722L74.5791 67.9764C75.4353 69.2503 75.3364 70.9544 74.3387 72.1205L67.2216 80.4387L67.2214 80.4386Z" fill="white"/>
</svg>
