<svg width="110" height="113" viewBox="0 0 110 113" fill="none" xmlns="http://www.w3.org/2000/svg">
<path d="M109.439 52.8361L105.777 39.1714C105.621 38.5855 105.018 38.2378 104.433 38.395C103.847 38.5519 103.499 39.154 103.656 39.7396L105.164 45.3659L95.4888 47.9595L93.9813 42.3334C93.8246 41.7476 93.2225 41.4 92.6369 41.5568L89.1224 42.497L57.9888 50.8394L55.5341 42.8692C55.4509 42.5984 55.2705 42.3848 55.044 42.2502C54.8126 40.4118 53.9815 34.1588 52.5328 26.914C50.2104 15.3004 47.4884 6.79257 44.4427 1.62674L43.6258 0.241651L42.4916 1.68722C38.629 6.64081 37.6058 13.1285 39.7547 19.0421L48.7865 43.8982C48.6434 44.1341 48.5884 44.4233 48.6545 44.7125L50.5137 52.8422L40.2335 55.5968C39.9522 55.6721 39.7125 55.8561 39.5669 56.1083C39.4212 56.3606 39.3818 56.6601 39.4571 56.9415L40.5 60.8337L33.0781 62.8224C32.4923 62.9793 32.1447 63.5814 32.3018 64.167L32.5213 64.9862L0.776306 73.4926L1.34474 75.6135L33.0897 67.1075L33.3093 67.9269C33.3876 68.2198 33.5774 68.4532 33.8208 68.5938C34.0643 68.7343 34.3612 68.7819 34.6541 68.7034L42.0758 66.7148L43.1185 70.6056C43.1969 70.8985 43.3867 71.1319 43.6301 71.2724C43.8734 71.4129 44.1702 71.4606 44.4629 71.3822L54.1598 68.7838L63.1718 108.19C63.5367 109.785 64.51 111.129 65.9123 111.974C65.9449 111.994 65.9777 112.013 66.0107 112.032C67.3911 112.829 68.9945 113.04 70.5391 112.627C72.1203 112.203 73.4274 111.181 74.2195 109.748C75.0115 108.315 75.1826 106.665 74.7007 105.1L62.8026 66.4681L96.8662 57.3421C97.1475 57.2666 97.3872 57.0827 97.5329 56.8304C97.6784 56.5783 97.7179 56.2786 97.6425 55.9974L96.0572 50.0808L105.732 47.4873L107.318 53.4046C107.396 53.6975 107.586 53.9309 107.83 54.0714C108.073 54.212 108.37 54.2595 108.663 54.181C109.248 54.024 109.596 53.4219 109.439 52.8361ZM88.6298 44.9024L89.8533 49.4683L60.0279 57.46L58.6357 52.9394L88.6298 44.9024ZM43.3714 4.23834C49.2816 15.7815 52.3713 38.6304 52.8605 42.4907L50.8111 43.0399L41.8188 18.2923C40.0987 13.5592 40.6899 8.4086 43.3714 4.23834ZM52.0582 59.5956L49.6049 60.253L48.3814 55.687L51.0037 54.9844L52.0582 59.5956ZM49.3534 67.7984L48.662 67.9837L45.5691 56.4406L46.2606 56.2553L49.3534 67.7984ZM35.5098 66.2006L35.0706 64.5622L41.0683 62.955L41.5073 64.5936L35.5098 66.2006ZM44.9555 68.9768L41.8625 57.4336L43.4479 57.0088L46.5409 68.552L44.9555 68.9768ZM51.4743 67.23L50.1733 62.3739L52.5481 61.7376L53.6697 66.6417L51.4743 67.23ZM72.2977 108.685C71.7967 109.591 70.9703 110.238 69.9705 110.506C68.9709 110.773 67.9302 110.634 67.0452 110.093C66.1585 109.559 65.5431 108.709 65.3125 107.7L51.0311 45.2544L53.747 44.5267L72.6019 105.747C72.9065 106.736 72.7985 107.78 72.2977 108.685ZM60.6746 59.5599L90.4216 51.5894L91.7231 56.4465L62.1554 64.3678L60.6746 59.5599ZM93.8442 55.8782L90.7511 44.3345L92.1441 43.9618L95.237 55.5051L93.8442 55.8782Z" fill="white"/>
</svg>
